<svg xmlns="http://www.w3.org/2000/svg" width="64" height="64"><defs><filter id="blur" width="200%" height="200%"><feGaussianBlur in="SourceAlpha" stdDeviation="3"/><feOffset dy="4" result="offsetblur"/><feComponentTransfer><feFuncA type="linear" slope=".05"/></feComponentTransfer><feMerge><feMergeNode/><feMergeNode in="SourceGraphic"/></feMerge></filter><style>@keyframes am-weather-cloud-2{0%,to{-webkit-transform:translate(0,0);-moz-transform:translate(0,0);-ms-transform:translate(0,0);transform:translate(0,0)}50%{-webkit-transform:translate(2px,0);-moz-transform:translate(2px,0);-ms-transform:translate(2px,0);transform:translate(2px,0)}}@keyframes am-weather-snow{0%{-webkit-transform:translateX(0) translateY(0);-moz-transform:translateX(0) translateY(0);-ms-transform:translateX(0) translateY(0);transform:translateX(0) translateY(0)}33.33%{-webkit-transform:translateX(-1.2px) translateY(2px);-moz-transform:translateX(-1.2px) translateY(2px);-ms-transform:translateX(-1.2px) translateY(2px);transform:translateX(-1.2px) translateY(2px)}66.66%{-webkit-transform:translateX(1.4px) translateY(4px);-moz-transform:translateX(1.4px) translateY(4px);-ms-transform:translateX(1.4px) translateY(4px);transform:translateX(1.4px) translateY(4px);opacity:1}to{-webkit-transform:translateX(-1.6px) translateY(6px);-moz-transform:translateX(-1.6px) translateY(6px);-ms-transform:translateX(-1.6px) translateY(6px);transform:translateX(-1.6px) translateY(6px);opacity:0}}</style></defs><g filter="url(#blur)" id="snowy-5"><path d="M47.7 35.4c0-4.6-3.7-8.2-8.2-8.2-1 0-1.9.2-2.8.5-.3-3.4-3.1-6.2-6.6-6.2-3.7 0-6.7 3-6.7 6.7 0 .8.2 1.6.4 2.3-.3-.1-.7-.1-1-.1-3.7 0-6.7 3-6.7 6.7 0 3.6 2.9 6.6 6.5 6.7h17.2c4.4-.5 7.9-4 7.9-8.4z" fill="#57A0EE" stroke="#fff" stroke-linejoin="round" stroke-width="1.2" transform="translate(0 -1)" style="-webkit-animation-name:am-weather-cloud-2;-moz-animation-name:am-weather-cloud-2;animation-name:am-weather-cloud-2;-webkit-animation-duration:3s;-moz-animation-duration:3s;animation-duration:3s;-webkit-animation-timing-function:linear;-moz-animation-timing-function:linear;animation-timing-function:linear;-webkit-animation-iteration-count:infinite;-moz-animation-iteration-count:infinite;animation-iteration-count:infinite"/><g fill="none" stroke="#57A0EE" stroke-linecap="round" style="-webkit-animation-name:am-weather-snow;-moz-animation-name:am-weather-snow;-ms-animation-name:am-weather-snow;animation-name:am-weather-snow;-webkit-animation-duration:2s;-moz-animation-duration:2s;-ms-animation-duration:2s;animation-duration:2s;-webkit-animation-timing-function:linear;-moz-animation-timing-function:linear;-ms-animation-timing-function:linear;animation-timing-function:linear;-webkit-animation-iteration-count:infinite;-moz-animation-iteration-count:infinite;-ms-animation-iteration-count:infinite;animation-iteration-count:infinite"><path stroke-width="1.2" d="M27 44.5v5"/><path transform="rotate(45 -43.234 56.092)" d="M0-2.5v5"/><path transform="rotate(90 -10 37)" d="M0-2.5v5"/><path transform="rotate(135 3.766 29.092)" d="M0-2.5v5"/></g><g fill="none" stroke="#57A0EE" stroke-linecap="round" style="-webkit-animation-name:am-weather-snow;-moz-animation-name:am-weather-snow;-ms-animation-name:am-weather-snow;animation-name:am-weather-snow;-webkit-animation-delay:1.2s;-moz-animation-delay:1.2s;-ms-animation-delay:1.2s;animation-delay:1.2s;-webkit-animation-duration:2s;-moz-animation-duration:2s;-ms-animation-duration:2s;animation-duration:2s;-webkit-animation-timing-function:linear;-moz-animation-timing-function:linear;-ms-animation-timing-function:linear;animation-timing-function:linear;-webkit-animation-iteration-count:infinite;-moz-animation-iteration-count:infinite;-ms-animation-iteration-count:infinite;animation-iteration-count:infinite"><path stroke-width="1.2" d="M36 44.5v5"/><path transform="rotate(45 -38.734 66.956)" d="M0-2.5v5"/><path transform="rotate(90 -5.5 41.5)" d="M0-2.5v5"/><path transform="rotate(135 8.266 30.956)" d="M0-2.5v5"/></g></g></svg>